G04 Layer_Physical_Order=2*
G04 Layer_Color=11436288*
%FSAX43Y43*%
%MOMM*%
G71*
G01*
G75*
%ADD11C,0.300*%
%ADD12C,1.905*%
%ADD13R,1.905X1.905*%
%ADD14R,1.905X1.905*%
%ADD15R,2.000X2.000*%
%ADD16C,2.000*%
%ADD17O,3.000X2.000*%
%ADD18R,3.000X2.000*%
%ADD19R,1.600X2.000*%
%ADD20O,1.600X2.000*%
%ADD21C,1.600*%
G36*
X0041874Y0054356D02*
X0041874Y0024684D01*
X0041574Y0024384D01*
X0020918Y0024384D01*
X0020828Y0024474D01*
X0020828Y0054266D01*
X0020918Y0054356D01*
X0041874Y0054356D01*
D02*
G37*
%LPC*%
G36*
X0037846Y0042238D02*
X0037531Y0042196D01*
X0037238Y0042075D01*
X0036986Y0041881D01*
X0036792Y0041629D01*
X0036671Y0041336D01*
X0036640Y0041104D01*
X0036512D01*
X0036481Y0041336D01*
X0036360Y0041629D01*
X0036167Y0041881D01*
X0035914Y0042075D01*
X0035621Y0042196D01*
X0035306Y0042238D01*
X0034991Y0042196D01*
X0034698Y0042075D01*
X0034446Y0041881D01*
X0034252Y0041629D01*
X0034131Y0041336D01*
X0034100Y0041104D01*
X0033972D01*
X0033941Y0041336D01*
X0033820Y0041629D01*
X0033626Y0041881D01*
X0033374Y0042075D01*
X0033081Y0042196D01*
X0032766Y0042238D01*
X0032451Y0042196D01*
X0032158Y0042075D01*
X0031906Y0041881D01*
X0031712Y0041629D01*
X0031591Y0041336D01*
X0031560Y0041100D01*
X0031433Y0041108D01*
Y0042227D01*
X0029020D01*
Y0039814D01*
X0031433D01*
Y0040934D01*
X0031560Y0040942D01*
X0031591Y0040706D01*
X0031712Y0040413D01*
X0031906Y0040160D01*
X0032158Y0039967D01*
X0032451Y0039846D01*
X0032683Y0039815D01*
Y0039687D01*
X0032451Y0039656D01*
X0032158Y0039535D01*
X0031906Y0039341D01*
X0031712Y0039089D01*
X0031591Y0038796D01*
X0031560Y0038560D01*
X0031433Y0038568D01*
Y0039687D01*
X0029020D01*
Y0037274D01*
X0031433D01*
Y0038394D01*
X0031560Y0038402D01*
X0031591Y0038166D01*
X0031712Y0037873D01*
X0031906Y0037620D01*
X0032158Y0037427D01*
X0032451Y0037306D01*
X0032766Y0037264D01*
X0033081Y0037306D01*
X0033374Y0037427D01*
X0033626Y0037620D01*
X0033820Y0037873D01*
X0033941Y0038166D01*
X0033972Y0038398D01*
X0034100D01*
X0034131Y0038166D01*
X0034252Y0037873D01*
X0034446Y0037620D01*
X0034698Y0037427D01*
X0034991Y0037306D01*
X0035306Y0037264D01*
X0035621Y0037306D01*
X0035914Y0037427D01*
X0036167Y0037620D01*
X0036360Y0037873D01*
X0036481Y0038166D01*
X0036512Y0038398D01*
X0036640D01*
X0036671Y0038166D01*
X0036792Y0037873D01*
X0036986Y0037620D01*
X0037238Y0037427D01*
X0037531Y0037306D01*
X0037846Y0037264D01*
X0038161Y0037306D01*
X0038454Y0037427D01*
X0038707Y0037620D01*
X0038900Y0037873D01*
X0039021Y0038166D01*
X0039063Y0038481D01*
X0039021Y0038796D01*
X0038900Y0039089D01*
X0038707Y0039341D01*
X0038454Y0039535D01*
X0038161Y0039656D01*
X0037929Y0039687D01*
Y0039815D01*
X0038161Y0039846D01*
X0038454Y0039967D01*
X0038707Y0040160D01*
X0038900Y0040413D01*
X0039021Y0040706D01*
X0039063Y0041021D01*
X0039021Y0041336D01*
X0038900Y0041629D01*
X0038707Y0041881D01*
X0038454Y0042075D01*
X0038161Y0042196D01*
X0037846Y0042238D01*
D02*
G37*
G36*
X0039824Y0046799D02*
X0038824D01*
X0038497Y0046756D01*
X0038192Y0046629D01*
X0037930Y0046428D01*
X0037729Y0046166D01*
X0037602Y0045861D01*
X0037559Y0045534D01*
X0037602Y0045207D01*
X0037729Y0044902D01*
X0037930Y0044640D01*
X0038192Y0044439D01*
X0038497Y0044312D01*
X0038824Y0044269D01*
X0039824D01*
X0040151Y0044312D01*
X0040456Y0044439D01*
X0040718Y0044640D01*
X0040919Y0044902D01*
X0041046Y0045207D01*
X0041089Y0045534D01*
X0041046Y0045861D01*
X0040919Y0046166D01*
X0040718Y0046428D01*
X0040456Y0046629D01*
X0040151Y0046756D01*
X0039824Y0046799D01*
D02*
G37*
G36*
X0028014Y0046647D02*
X0027739Y0046611D01*
X0027482Y0046505D01*
X0027262Y0046336D01*
X0027093Y0046116D01*
X0026987Y0045859D01*
X0026951Y0045584D01*
X0026987Y0045309D01*
X0027093Y0045052D01*
X0027262Y0044832D01*
X0027482Y0044663D01*
X0027739Y0044557D01*
X0028014Y0044521D01*
X0028289Y0044557D01*
X0028546Y0044663D01*
X0028766Y0044832D01*
X0028935Y0045052D01*
X0029041Y0045309D01*
X0029077Y0045584D01*
X0029041Y0045859D01*
X0028935Y0046116D01*
X0028766Y0046336D01*
X0028546Y0046505D01*
X0028289Y0046611D01*
X0028014Y0046647D01*
D02*
G37*
G36*
X0023622Y0044191D02*
X0023295Y0044148D01*
X0022990Y0044021D01*
X0022728Y0043820D01*
X0022527Y0043558D01*
X0022400Y0043253D01*
X0022357Y0042926D01*
X0022400Y0042599D01*
X0022527Y0042294D01*
X0022728Y0042032D01*
X0022990Y0041831D01*
X0023245Y0041725D01*
Y0041587D01*
X0022990Y0041481D01*
X0022728Y0041280D01*
X0022527Y0041018D01*
X0022400Y0040713D01*
X0022357Y0040386D01*
X0022400Y0040059D01*
X0022527Y0039754D01*
X0022728Y0039492D01*
X0022990Y0039291D01*
X0023245Y0039185D01*
Y0039047D01*
X0022990Y0038941D01*
X0022728Y0038740D01*
X0022527Y0038478D01*
X0022400Y0038173D01*
X0022357Y0037846D01*
X0022400Y0037519D01*
X0022527Y0037214D01*
X0022728Y0036952D01*
X0022990Y0036751D01*
X0023245Y0036645D01*
Y0036507D01*
X0022990Y0036401D01*
X0022728Y0036200D01*
X0022527Y0035938D01*
X0022400Y0035633D01*
X0022357Y0035306D01*
X0022400Y0034979D01*
X0022527Y0034674D01*
X0022728Y0034412D01*
X0022990Y0034211D01*
X0023245Y0034105D01*
Y0033967D01*
X0022990Y0033861D01*
X0022728Y0033660D01*
X0022527Y0033398D01*
X0022400Y0033093D01*
X0022357Y0032766D01*
X0022400Y0032439D01*
X0022527Y0032134D01*
X0022728Y0031872D01*
X0022990Y0031671D01*
X0023245Y0031565D01*
Y0031427D01*
X0022990Y0031321D01*
X0022728Y0031120D01*
X0022527Y0030858D01*
X0022400Y0030553D01*
X0022357Y0030226D01*
X0022400Y0029899D01*
X0022527Y0029594D01*
X0022728Y0029332D01*
X0022990Y0029131D01*
X0023143Y0029067D01*
X0023118Y0028940D01*
X0022368D01*
Y0026432D01*
X0024876D01*
Y0028940D01*
X0024126D01*
X0024101Y0029067D01*
X0024254Y0029131D01*
X0024516Y0029332D01*
X0024717Y0029594D01*
X0024844Y0029899D01*
X0024887Y0030226D01*
X0024844Y0030553D01*
X0024717Y0030858D01*
X0024516Y0031120D01*
X0024254Y0031321D01*
X0023999Y0031427D01*
Y0031565D01*
X0024254Y0031671D01*
X0024516Y0031872D01*
X0024717Y0032134D01*
X0024844Y0032439D01*
X0024887Y0032766D01*
X0024844Y0033093D01*
X0024717Y0033398D01*
X0024516Y0033660D01*
X0024254Y0033861D01*
X0023999Y0033967D01*
Y0034105D01*
X0024254Y0034211D01*
X0024516Y0034412D01*
X0024717Y0034674D01*
X0024844Y0034979D01*
X0024887Y0035306D01*
X0024844Y0035633D01*
X0024717Y0035938D01*
X0024516Y0036200D01*
X0024254Y0036401D01*
X0023999Y0036507D01*
Y0036645D01*
X0024254Y0036751D01*
X0024516Y0036952D01*
X0024717Y0037214D01*
X0024844Y0037519D01*
X0024887Y0037846D01*
X0024844Y0038173D01*
X0024717Y0038478D01*
X0024516Y0038740D01*
X0024254Y0038941D01*
X0023999Y0039047D01*
Y0039185D01*
X0024254Y0039291D01*
X0024516Y0039492D01*
X0024717Y0039754D01*
X0024844Y0040059D01*
X0024887Y0040386D01*
X0024844Y0040713D01*
X0024717Y0041018D01*
X0024516Y0041280D01*
X0024254Y0041481D01*
X0023999Y0041587D01*
Y0041725D01*
X0024254Y0041831D01*
X0024516Y0042032D01*
X0024717Y0042294D01*
X0024844Y0042599D01*
X0024887Y0042926D01*
X0024844Y0043253D01*
X0024717Y0043558D01*
X0024516Y0043820D01*
X0024254Y0044021D01*
X0023949Y0044148D01*
X0023622Y0044191D01*
D02*
G37*
G36*
X0037846Y0032078D02*
X0037531Y0032036D01*
X0037238Y0031915D01*
X0036986Y0031721D01*
X0036792Y0031469D01*
X0036671Y0031176D01*
X0036640Y0030944D01*
X0036512D01*
X0036481Y0031176D01*
X0036360Y0031469D01*
X0036167Y0031721D01*
X0035914Y0031915D01*
X0035621Y0032036D01*
X0035306Y0032078D01*
X0034991Y0032036D01*
X0034698Y0031915D01*
X0034446Y0031721D01*
X0034252Y0031469D01*
X0034131Y0031176D01*
X0034100Y0030944D01*
X0033972D01*
X0033941Y0031176D01*
X0033820Y0031469D01*
X0033626Y0031721D01*
X0033374Y0031915D01*
X0033081Y0032036D01*
X0032766Y0032078D01*
X0032451Y0032036D01*
X0032158Y0031915D01*
X0031906Y0031721D01*
X0031712Y0031469D01*
X0031591Y0031176D01*
X0031560Y0030944D01*
X0031432D01*
X0031401Y0031176D01*
X0031280Y0031469D01*
X0031087Y0031721D01*
X0030834Y0031915D01*
X0030541Y0032036D01*
X0030226Y0032078D01*
X0029911Y0032036D01*
X0029618Y0031915D01*
X0029366Y0031721D01*
X0029172Y0031469D01*
X0029051Y0031176D01*
X0029009Y0030861D01*
X0029051Y0030546D01*
X0029172Y0030253D01*
X0029366Y0030000D01*
X0029618Y0029807D01*
X0029911Y0029686D01*
X0030143Y0029655D01*
Y0029527D01*
X0029911Y0029496D01*
X0029618Y0029375D01*
X0029366Y0029181D01*
X0029172Y0028929D01*
X0029051Y0028636D01*
X0029009Y0028321D01*
X0029051Y0028006D01*
X0029172Y0027713D01*
X0029366Y0027461D01*
X0029618Y0027267D01*
X0029911Y0027146D01*
X0030226Y0027104D01*
X0030541Y0027146D01*
X0030834Y0027267D01*
X0031087Y0027461D01*
X0031280Y0027713D01*
X0031401Y0028006D01*
X0031432Y0028238D01*
X0031560D01*
X0031591Y0028006D01*
X0031712Y0027713D01*
X0031906Y0027461D01*
X0032158Y0027267D01*
X0032451Y0027146D01*
X0032766Y0027104D01*
X0033081Y0027146D01*
X0033374Y0027267D01*
X0033626Y0027461D01*
X0033820Y0027713D01*
X0033941Y0028006D01*
X0033972Y0028238D01*
X0034100D01*
X0034131Y0028006D01*
X0034252Y0027713D01*
X0034446Y0027461D01*
X0034698Y0027267D01*
X0034991Y0027146D01*
X0035306Y0027104D01*
X0035621Y0027146D01*
X0035914Y0027267D01*
X0036167Y0027461D01*
X0036360Y0027713D01*
X0036481Y0028006D01*
X0036512Y0028238D01*
X0036640D01*
X0036671Y0028006D01*
X0036792Y0027713D01*
X0036986Y0027461D01*
X0037238Y0027267D01*
X0037531Y0027146D01*
X0037846Y0027104D01*
X0038161Y0027146D01*
X0038454Y0027267D01*
X0038707Y0027461D01*
X0038900Y0027713D01*
X0039021Y0028006D01*
X0039063Y0028321D01*
X0039021Y0028636D01*
X0038900Y0028929D01*
X0038707Y0029181D01*
X0038454Y0029375D01*
X0038161Y0029496D01*
X0037929Y0029527D01*
Y0029655D01*
X0038161Y0029686D01*
X0038454Y0029807D01*
X0038707Y0030000D01*
X0038900Y0030253D01*
X0039021Y0030546D01*
X0039063Y0030861D01*
X0039021Y0031176D01*
X0038900Y0031469D01*
X0038707Y0031721D01*
X0038454Y0031915D01*
X0038161Y0032036D01*
X0037846Y0032078D01*
D02*
G37*
G36*
X0026917Y0039781D02*
X0026745Y0039756D01*
X0026586Y0039688D01*
X0026449Y0039581D01*
X0026345Y0039442D01*
X0026280Y0039281D01*
X0026259Y0039109D01*
X0026284Y0038937D01*
X0026352Y0038778D01*
X0026459Y0038641D01*
X0026598Y0038537D01*
X0026759Y0038472D01*
X0026931Y0038451D01*
X0027103Y0038476D01*
X0027262Y0038544D01*
X0027399Y0038651D01*
X0027503Y0038790D01*
X0027568Y0038951D01*
X0027589Y0039123D01*
X0027564Y0039295D01*
X0027496Y0039454D01*
X0027389Y0039591D01*
X0027250Y0039695D01*
X0027089Y0039760D01*
X0026917Y0039781D01*
D02*
G37*
G36*
X0029210Y0052533D02*
X0028935Y0052497D01*
X0028678Y0052391D01*
X0028458Y0052222D01*
X0028289Y0052002D01*
X0028183Y0051745D01*
X0028147Y0051470D01*
Y0051070D01*
X0028183Y0050795D01*
X0028289Y0050538D01*
X0028458Y0050318D01*
X0028678Y0050149D01*
X0028935Y0050043D01*
X0029210Y0050007D01*
X0029485Y0050043D01*
X0029742Y0050149D01*
X0029962Y0050318D01*
X0030131Y0050538D01*
X0030237Y0050795D01*
X0030273Y0051070D01*
Y0051470D01*
X0030237Y0051745D01*
X0030131Y0052002D01*
X0029962Y0052222D01*
X0029742Y0052391D01*
X0029485Y0052497D01*
X0029210Y0052533D01*
D02*
G37*
G36*
X0035560Y0049677D02*
X0035285Y0049641D01*
X0035028Y0049535D01*
X0034808Y0049366D01*
X0034639Y0049146D01*
X0034533Y0048889D01*
X0034497Y0048614D01*
X0034533Y0048339D01*
X0034639Y0048082D01*
X0034808Y0047862D01*
X0035028Y0047693D01*
X0035285Y0047587D01*
X0035560Y0047551D01*
X0035835Y0047587D01*
X0036092Y0047693D01*
X0036312Y0047862D01*
X0036481Y0048082D01*
X0036587Y0048339D01*
X0036623Y0048614D01*
X0036587Y0048889D01*
X0036481Y0049146D01*
X0036312Y0049366D01*
X0036092Y0049535D01*
X0035835Y0049641D01*
X0035560Y0049677D01*
D02*
G37*
G36*
X0035344Y0052524D02*
X0033236D01*
Y0050016D01*
X0035344D01*
Y0052524D01*
D02*
G37*
G36*
X0031750Y0052533D02*
X0031475Y0052497D01*
X0031218Y0052391D01*
X0030998Y0052222D01*
X0030829Y0052002D01*
X0030723Y0051745D01*
X0030687Y0051470D01*
Y0051070D01*
X0030723Y0050795D01*
X0030829Y0050538D01*
X0030998Y0050318D01*
X0031218Y0050149D01*
X0031475Y0050043D01*
X0031750Y0050007D01*
X0032025Y0050043D01*
X0032282Y0050149D01*
X0032502Y0050318D01*
X0032671Y0050538D01*
X0032777Y0050795D01*
X0032813Y0051070D01*
Y0051470D01*
X0032777Y0051745D01*
X0032671Y0052002D01*
X0032502Y0052222D01*
X0032282Y0052391D01*
X0032025Y0052497D01*
X0031750Y0052533D01*
D02*
G37*
G36*
X0027940Y0049677D02*
X0027665Y0049641D01*
X0027408Y0049535D01*
X0027188Y0049366D01*
X0027019Y0049146D01*
X0026913Y0048889D01*
X0026877Y0048614D01*
X0026913Y0048339D01*
X0027019Y0048082D01*
X0027188Y0047862D01*
X0027408Y0047693D01*
X0027665Y0047587D01*
X0027940Y0047551D01*
X0028215Y0047587D01*
X0028472Y0047693D01*
X0028692Y0047862D01*
X0028861Y0048082D01*
X0028967Y0048339D01*
X0029003Y0048614D01*
X0028967Y0048889D01*
X0028861Y0049146D01*
X0028692Y0049366D01*
X0028472Y0049535D01*
X0028215Y0049641D01*
X0027940Y0049677D01*
D02*
G37*
G36*
X0041078Y0049838D02*
X0037570D01*
Y0047330D01*
X0041078D01*
Y0049838D01*
D02*
G37*
G36*
X0035634Y0046647D02*
X0035359Y0046611D01*
X0035102Y0046505D01*
X0034882Y0046336D01*
X0034713Y0046116D01*
X0034607Y0045859D01*
X0034571Y0045584D01*
X0034607Y0045309D01*
X0034713Y0045052D01*
X0034882Y0044832D01*
X0035102Y0044663D01*
X0035359Y0044557D01*
X0035634Y0044521D01*
X0035909Y0044557D01*
X0036166Y0044663D01*
X0036386Y0044832D01*
X0036555Y0045052D01*
X0036661Y0045309D01*
X0036697Y0045584D01*
X0036661Y0045859D01*
X0036555Y0046116D01*
X0036386Y0046336D01*
X0036166Y0046505D01*
X0035909Y0046611D01*
X0035634Y0046647D01*
D02*
G37*
%LPD*%
G36*
X0031591Y0030546D02*
X0031712Y0030253D01*
X0031906Y0030000D01*
X0032158Y0029807D01*
X0032451Y0029686D01*
X0032683Y0029655D01*
Y0029527D01*
X0032451Y0029496D01*
X0032158Y0029375D01*
X0031906Y0029181D01*
X0031712Y0028929D01*
X0031591Y0028636D01*
X0031560Y0028404D01*
X0031432D01*
X0031401Y0028636D01*
X0031280Y0028929D01*
X0031087Y0029181D01*
X0030834Y0029375D01*
X0030541Y0029496D01*
X0030309Y0029527D01*
Y0029655D01*
X0030541Y0029686D01*
X0030834Y0029807D01*
X0031087Y0030000D01*
X0031280Y0030253D01*
X0031401Y0030546D01*
X0031432Y0030778D01*
X0031560D01*
X0031591Y0030546D01*
D02*
G37*
G36*
X0034131D02*
X0034252Y0030253D01*
X0034446Y0030000D01*
X0034698Y0029807D01*
X0034991Y0029686D01*
X0035223Y0029655D01*
Y0029527D01*
X0034991Y0029496D01*
X0034698Y0029375D01*
X0034446Y0029181D01*
X0034252Y0028929D01*
X0034131Y0028636D01*
X0034100Y0028404D01*
X0033972D01*
X0033941Y0028636D01*
X0033820Y0028929D01*
X0033626Y0029181D01*
X0033374Y0029375D01*
X0033081Y0029496D01*
X0032849Y0029527D01*
Y0029655D01*
X0033081Y0029686D01*
X0033374Y0029807D01*
X0033626Y0030000D01*
X0033820Y0030253D01*
X0033941Y0030546D01*
X0033972Y0030778D01*
X0034100D01*
X0034131Y0030546D01*
D02*
G37*
G36*
Y0040706D02*
X0034252Y0040413D01*
X0034446Y0040160D01*
X0034698Y0039967D01*
X0034991Y0039846D01*
X0035223Y0039815D01*
Y0039687D01*
X0034991Y0039656D01*
X0034698Y0039535D01*
X0034446Y0039341D01*
X0034252Y0039089D01*
X0034131Y0038796D01*
X0034100Y0038564D01*
X0033972D01*
X0033941Y0038796D01*
X0033820Y0039089D01*
X0033626Y0039341D01*
X0033374Y0039535D01*
X0033081Y0039656D01*
X0032849Y0039687D01*
Y0039815D01*
X0033081Y0039846D01*
X0033374Y0039967D01*
X0033626Y0040160D01*
X0033820Y0040413D01*
X0033941Y0040706D01*
X0033972Y0040938D01*
X0034100D01*
X0034131Y0040706D01*
D02*
G37*
G36*
X0036671D02*
X0036792Y0040413D01*
X0036986Y0040160D01*
X0037238Y0039967D01*
X0037531Y0039846D01*
X0037763Y0039815D01*
Y0039687D01*
X0037531Y0039656D01*
X0037238Y0039535D01*
X0036986Y0039341D01*
X0036792Y0039089D01*
X0036671Y0038796D01*
X0036640Y0038564D01*
X0036512D01*
X0036481Y0038796D01*
X0036360Y0039089D01*
X0036167Y0039341D01*
X0035914Y0039535D01*
X0035621Y0039656D01*
X0035389Y0039687D01*
Y0039815D01*
X0035621Y0039846D01*
X0035914Y0039967D01*
X0036167Y0040160D01*
X0036360Y0040413D01*
X0036481Y0040706D01*
X0036512Y0040938D01*
X0036640D01*
X0036671Y0040706D01*
D02*
G37*
G36*
Y0030546D02*
X0036792Y0030253D01*
X0036986Y0030000D01*
X0037238Y0029807D01*
X0037531Y0029686D01*
X0037763Y0029655D01*
Y0029527D01*
X0037531Y0029496D01*
X0037238Y0029375D01*
X0036986Y0029181D01*
X0036792Y0028929D01*
X0036671Y0028636D01*
X0036640Y0028404D01*
X0036512D01*
X0036481Y0028636D01*
X0036360Y0028929D01*
X0036167Y0029181D01*
X0035914Y0029375D01*
X0035621Y0029496D01*
X0035389Y0029527D01*
Y0029655D01*
X0035621Y0029686D01*
X0035914Y0029807D01*
X0036167Y0030000D01*
X0036360Y0030253D01*
X0036481Y0030546D01*
X0036512Y0030778D01*
X0036640D01*
X0036671Y0030546D01*
D02*
G37*
D11*
X0026924Y0039116D02*
D03*
D12*
X0037846Y0030861D02*
D03*
X0035306D02*
D03*
X0032766D02*
D03*
X0030226D02*
D03*
X0037846Y0038481D02*
D03*
X0035306D02*
D03*
X0032766D02*
D03*
X0030226Y0028321D02*
D03*
X0035306Y0041021D02*
D03*
X0037846D02*
D03*
Y0028321D02*
D03*
X0035306D02*
D03*
X0032766D02*
D03*
Y0041021D02*
D03*
D13*
X0030226Y0038481D02*
D03*
D14*
Y0041021D02*
D03*
D15*
X0023622Y0027686D02*
D03*
D16*
Y0030226D02*
D03*
Y0032766D02*
D03*
Y0035306D02*
D03*
Y0037846D02*
D03*
Y0040386D02*
D03*
Y0042926D02*
D03*
D17*
X0039324Y0045534D02*
D03*
D18*
Y0048584D02*
D03*
D19*
X0034290Y0051270D02*
D03*
D20*
X0031750D02*
D03*
X0029210D02*
D03*
D21*
X0035560Y0048614D02*
D03*
X0027940D02*
D03*
X0028014Y0045584D02*
D03*
X0035634D02*
D03*
M02*
