G04 Layer_Color=8150272*
%FSAX43Y43*%
%MOMM*%
G71*
G01*
G75*
%ADD11C,0.300*%
%ADD25C,2.108*%
%ADD26R,2.108X2.108*%
%ADD27R,2.108X2.108*%
%ADD28R,2.203X2.203*%
%ADD29C,2.203*%
%ADD30O,3.203X2.203*%
%ADD31R,3.203X2.203*%
%ADD32R,1.803X2.203*%
%ADD33O,1.803X2.203*%
%ADD34C,1.803*%
D11*
X0026924Y0039116D02*
D03*
D25*
X0037846Y0030861D02*
D03*
X0035306D02*
D03*
X0032766D02*
D03*
X0030226D02*
D03*
X0037846Y0038481D02*
D03*
X0035306D02*
D03*
X0032766D02*
D03*
X0030226Y0028321D02*
D03*
X0035306Y0041021D02*
D03*
X0037846D02*
D03*
Y0028321D02*
D03*
X0035306D02*
D03*
X0032766D02*
D03*
Y0041021D02*
D03*
D26*
X0030226Y0038481D02*
D03*
D27*
Y0041021D02*
D03*
D28*
X0023622Y0027686D02*
D03*
D29*
Y0030226D02*
D03*
Y0032766D02*
D03*
Y0035306D02*
D03*
Y0037846D02*
D03*
Y0040386D02*
D03*
Y0042926D02*
D03*
D30*
X0039324Y0045534D02*
D03*
D31*
Y0048584D02*
D03*
D32*
X0034290Y0051270D02*
D03*
D33*
X0031750D02*
D03*
X0029210D02*
D03*
D34*
X0035560Y0048614D02*
D03*
X0027940D02*
D03*
X0028014Y0045584D02*
D03*
X0035634D02*
D03*
M02*
