G04 Layer_Color=15132400*
%FSAX43Y43*%
%MOMM*%
G71*
G01*
G75*
%ADD22C,0.051*%
%ADD23C,0.200*%
%ADD24C,0.254*%
D22*
X0033693Y0049541D02*
G03*
X0033401Y0049249I0000000J-0000292D01*
G01*
X0034671Y0049135D02*
G03*
X0034265Y0049541I-0000406J0000000D01*
G01*
Y0047687D02*
G03*
X0034671Y0048093I0000000J0000406D01*
G01*
X0033401Y0047979D02*
G03*
X0033693Y0047687I0000292J0000000D01*
G01*
X0029807D02*
G03*
X0030099Y0047979I0000000J0000292D01*
G01*
X0028829Y0048093D02*
G03*
X0029235Y0047687I0000406J0000000D01*
G01*
Y0049541D02*
G03*
X0028829Y0049135I0000000J-0000406D01*
G01*
X0030099Y0049249D02*
G03*
X0029807Y0049541I-0000292J0000000D01*
G01*
X0029881Y0044657D02*
G03*
X0030173Y0044949I0000000J0000292D01*
G01*
X0028903Y0045063D02*
G03*
X0029309Y0044657I0000406J0000000D01*
G01*
Y0046511D02*
G03*
X0028903Y0046105I0000000J-0000406D01*
G01*
X0030173Y0046219D02*
G03*
X0029881Y0046511I-0000292J0000000D01*
G01*
X0033767D02*
G03*
X0033475Y0046219I0000000J-0000292D01*
G01*
X0034745Y0046105D02*
G03*
X0034339Y0046511I-0000406J0000000D01*
G01*
Y0044657D02*
G03*
X0034745Y0045063I0000000J0000406D01*
G01*
X0033475Y0044949D02*
G03*
X0033767Y0044657I0000292J0000000D01*
G01*
X0031750Y0047979D02*
X0033401D01*
X0031750Y0049249D02*
X0033401D01*
X0030099D02*
X0031750D01*
X0030099Y0047979D02*
X0031750D01*
X0033693Y0049541D02*
X0034265D01*
X0034671Y0048614D02*
Y0049135D01*
Y0048093D02*
Y0048614D01*
X0033693Y0047687D02*
X0034265D01*
X0029235D02*
X0029807D01*
X0028829Y0048614D02*
Y0049135D01*
X0029235Y0049541D02*
X0029807D01*
X0028829Y0048093D02*
Y0048614D01*
X0030173Y0046219D02*
X0031824D01*
X0030173Y0044949D02*
X0031824D01*
X0033475D01*
X0031824Y0046219D02*
X0033475D01*
X0029309Y0044657D02*
X0029881D01*
X0028903Y0045063D02*
Y0045584D01*
Y0046105D01*
X0029309Y0046511D02*
X0029881D01*
X0033767D02*
X0034339D01*
X0034745Y0045063D02*
Y0045584D01*
X0033767Y0044657D02*
X0034339D01*
X0034745Y0045584D02*
Y0046105D01*
D23*
X0022222Y0044323D02*
X0025022D01*
Y0026286D02*
Y0044323D01*
X0022222Y0026286D02*
X0025022D01*
X0022222D02*
Y0044323D01*
D24*
X0023380Y0046697D02*
X0022873D01*
X0023126D01*
Y0045428D01*
X0022873Y0045174D01*
X0022619D01*
X0022365Y0045428D01*
X0023888Y0045174D02*
X0024396D01*
X0024142D01*
Y0046697D01*
X0023888Y0046443D01*
X0032586Y0046346D02*
Y0044822D01*
X0031824D01*
X0031570Y0045076D01*
Y0045584D01*
X0031824Y0045838D01*
X0032586D01*
X0032078D02*
X0031570Y0046346D01*
X0031062D02*
X0030555D01*
X0030809D01*
Y0044822D01*
X0031062Y0045076D01*
X0032766Y0049376D02*
Y0047852D01*
X0032004D01*
X0031750Y0048106D01*
Y0048614D01*
X0032004Y0048868D01*
X0032766D01*
X0032258D02*
X0031750Y0049376D01*
X0030227D02*
X0031242D01*
X0030227Y0048360D01*
Y0048106D01*
X0030481Y0047852D01*
X0030989D01*
X0031242Y0048106D01*
M02*
