M48
;Layer_Color=6321
;FILE_FORMAT=4:3
METRIC,TZ
;TYPE=PLATED
T1F00S00C0.800
T2F00S00C0.900
T3F00S00C1.000
;TYPE=NON_PLATED
T4F00S00C0.810
%
T01
X28014Y45584
X27940Y48614
X29210Y51270
X31750
X34290
X35560Y48614
X35634Y45584
T02
X30226Y30861
X32766
X35306
X37846
Y38481
X35306
X32766
X30226
T03
X23622Y27686
Y30226
Y32766
Y35306
Y37846
X30226Y28321
X32766
X35306
X37846
Y41021
X35306
X32766
X30226
X23622Y40386
Y42926
X39324Y45534
Y48584
T04
X26924Y39116
M30
